<svg xmlns="http://www.w3.org/2000/svg" width="1200" height="360" viewBox="0 0 1200 360" role="img" aria-labelledby="bannerTitle">
  <title id="bannerTitle">Leerkrachtentools</title>
  <style>
    @import url("https://fonts.googleapis.com/css2?family=Rubik:wght@900&amp;display=swap");
    .letter {
      font-family: "Rubik", sans-serif;
      font-weight: 900;
      font-size: 72px;
      fill: url(#hsTitle);
      text-anchor: middle;
      dominant-baseline: middle;
    }
  </style>
  <defs>
    <pattern id="hsGrid" width="32" height="32" patternUnits="userSpaceOnUse">
      <circle cx="16" cy="16" r="1" fill="rgba(255,255,255,0.1)"/>
    </pattern>
    <radialGradient id="hsGridFade" cx="50%" cy="25%" rx="80%" ry="65%">
      <stop offset="60%" stop-color="white"/>
      <stop offset="100%" stop-color="black"/>
    </radialGradient>
    <mask id="hsGridMask">
      <rect width="1200" height="360" fill="url(#hsGridFade)"/>
    </mask>
    <linearGradient id="hsTitle" x1="0" y1="0" x2="0" y2="1">
      <stop offset="30%" stop-color="#ffffff"/>
      <stop offset="100%" stop-color="#71717a"/>
    </linearGradient>
    <clipPath id="hsRound">
      <rect width="1200" height="360" rx="20" ry="20"/>
    </clipPath>
  </defs>
  <g clip-path="url(#hsRound)">
    <rect width="1200" height="360" fill="#000000"/>
    <rect width="1200" height="360" fill="url(#hsGrid)" mask="url(#hsGridMask)"/>
    <text class="letter" x="191.98" y="187.49" transform="rotate(-5.5 191.98 187.49)">L</text>
    <text class="letter" x="243.02" y="172.51" transform="rotate(5.5 243.02 172.51)">e</text>
    <text class="letter" x="294.00" y="187.49" transform="rotate(-4.5 294.00 187.49)">e</text>
    <text class="letter" x="344.98" y="172.51" transform="rotate(5 344.98 172.51)">r</text>
    <text class="letter" x="396.02" y="189.00" transform="rotate(-5.5 396.02 189.00)">k</text>
    <text class="letter" x="447.00" y="172.51" transform="rotate(4.5 447.00 172.51)">r</text>
    <text class="letter" x="497.98" y="187.49" transform="rotate(-5 497.98 187.49)">a</text>
    <text class="letter" x="549.02" y="172.51" transform="rotate(5.5 549.02 172.51)">c</text>
    <text class="letter" x="600.00" y="180.00" transform="rotate(0 600.00 180.00)">h</text>
    <text class="letter" x="650.98" y="189.00" transform="rotate(-5 650.98 189.00)">t</text>
    <text class="letter" x="702.02" y="172.51" transform="rotate(5.5 702.02 172.51)">e</text>
    <text class="letter" x="753.00" y="187.49" transform="rotate(-5.5 753.00 187.49)">n</text>
    <text class="letter" x="803.98" y="172.51" transform="rotate(4.5 803.98 172.51)">t</text>
    <text class="letter" x="855.02" y="189.00" transform="rotate(-5 855.02 189.00)">o</text>
    <text class="letter" x="906.00" y="172.51" transform="rotate(5.5 906.00 172.51)">o</text>
    <text class="letter" x="956.98" y="187.49" transform="rotate(-4.5 956.98 187.49)">l</text>
    <text class="letter" x="1008.02" y="180.00" transform="rotate(5 1008.02 180.00)">s</text>
  </g>
</svg>
